# xmcd
#
# Track frame offsets:
#	150
#	11803
#	27983
#	45149
#	58815
#	76648
#	92198
#	107594
#	120174
#	135013
#	152846
#	166141
#	179932
#	193337
#	211473
#	224073
#	244515
#	261048
#	280109
#	296551
#	308185
#
# Disc length: 4280 seconds
#
# Revision: 1
# Processed by: cddbd v1.4PL0 Copyright (c) Steve Scherf et al.
# Submitted via: audiograbber 1.80
#
DISCID=2510b615
DTITLE=Grandes Duplas - Vol. 2
DYEAR=1900
DGENRE=
TTITLE0=Teodoro e Sampaio - Cantaram minha Vizinha
TTITLE1=Milionário e José Rico - Vida a Vida
TTITLE2=Mato Grosso e Mathias - 24 Horas de Amor
TTITLE3=Tião Carreiro e Pardinho - Encantos da Natureza
TTITLE4=Tonico e Tinoco - Cabocla Tereza
TTITLE5=João Mineiro e Marciano - As Paredes Azuis
TTITLE6=Lourenço e Lourival - Meu Reino Encantado
TTITLE7=Teodoro e Sampaio - Amando Escondido
TTITLE8=Milionário e José Rico - Cabecinha no Ombro
TTITLE9=Mato Grosso e Mathias - Na Hora do Adeus
TTITLE10=Tião Carreiro e Pardinho - Rei do Gado
TTITLE11=Tonico e Tinoco - Chico Mineiro
TTITLE12=João Mineiro e Marciano - Crise de Amor
TTITLE13=Lourenço e Lourival - Velha Porteira
TTITLE14=Milionário e José Rico - De Longe Também se Ama
TTITLE15=Mato Grosso e Mathias - Frente a Frente
TTITLE16=Tião Carreiro e Pardinho - Rio de Lágrimas
TTITLE17=Tonico e Tinoco - Chitãozinho e Xororó
TTITLE18=João Mineiro e Marciano - Seu Amor ainda é Tudo
TTITLE19=Lourenço e Lourival - A Caneta e a Enxada
TTITLE20=Teodoro e Sampaio - Se a Casa Cai
EXTD=
EXTT0=
EXTT1=
EXTT2=
EXTT3=
EXTT4=
EXTT5=
EXTT6=
EXTT7=
EXTT8=
EXTT9=
EXTT10=
EXTT11=
EXTT12=
EXTT13=
EXTT14=
EXTT15=
EXTT16=
EXTT17=
EXTT18=
EXTT19=
EXTT20=
PLAYORDER=
